<?xml version="1.0" encoding="UTF-8" standalone="no"?>
<!-- Created with Inkscape (http://www.inkscape.org/) -->

<svg
        width="48"
        height="48"
        viewBox="0 0 48 48"
        version="1.1"
        id="svg1"
        inkscape:export-filename="finish-flag-32.png"
        inkscape:export-xdpi="64"
        inkscape:export-ydpi="64"
        inkscape:version="1.4.3 (0d15f75, 2025-12-25)"
        sodipodi:docname="finish-flag.svg"
        xmlns:inkscape="http://www.inkscape.org/namespaces/inkscape"
        xmlns:sodipodi="http://sodipodi.sourceforge.net/DTD/sodipodi-0.dtd"
        xmlns="http://www.w3.org/2000/svg"
>
  <sodipodi:namedview
     id="namedview1"
     pagecolor="#ffffff"
     bordercolor="#000000"
     borderopacity="0.25"
     inkscape:showpageshadow="2"
     inkscape:pageopacity="0.0"
     inkscape:pagecheckerboard="0"
     inkscape:deskcolor="#d1d1d1"
     inkscape:document-units="px"
     inkscape:zoom="16"
     inkscape:cx="14.625"
     inkscape:cy="6.1562501"
     inkscape:window-width="2560"
     inkscape:window-height="1369"
     inkscape:window-x="-8"
     inkscape:window-y="-8"
     inkscape:window-maximized="1"
     inkscape:current-layer="layer4" />
  <defs
     id="defs1">
    <inkscape:path-effect
       effect="tiling"
       id="path-effect2"
       is_visible="true"
       lpeversion="1.3.1"
       unit="px"
       seed="1;48940987"
       lpesatellites=""
       num_rows="6"
       num_cols="4"
       gapx="14"
       gapy="3"
       offset="50"
       offset_type="false"
       scale="0"
       rotate="0"
       mirrorrowsx="false"
       mirrorrowsy="false"
       mirrorcolsx="false"
       mirrorcolsy="false"
       mirrortrans="false"
       shrink_interp="false"
       split_items="false"
       link_styles="false"
       interpolate_scalex="false"
       interpolate_scaley="true"
       interpolate_rotatex="false"
       interpolate_rotatey="true"
       random_scale="false"
       random_rotate="false"
       random_gap_y="false"
       random_gap_x="false"
       transformorigin="matrix(0.58343498,0,0,1,2.8351007,0)" />
    <inkscape:path-effect
       effect="bend_path"
       id="path-effect1"
       is_visible="true"
       lpeversion="1"
       bendpath="m 5.0789447,26.325201 h 7.0744533 c 0,0 5.976461,-0.670231 8.47562,-0.828302 2.49916,-0.158071 4.739424,-0.270182 6.506205,-0.188164 2.117572,0.0983 6.277801,1.016466 6.277801,1.016466"
       prop_scale="1"
       scale_y_rel="false"
       vertical="false"
       hide_knot="false"
       bendpath-nodetypes="cccsc" />
    <clipPath
       clipPathUnits="userSpaceOnUse"
       id="clipPath3">
      <path
         style="font-variation-settings:'wght' 462;display:inline;opacity:0.993658;fill:none;fill-opacity:1;stroke:none;stroke-width:4.158;stroke-linecap:round;stroke-linejoin:round;stroke-dasharray:none;stroke-opacity:1;paint-order:stroke markers fill"
         d="M 11.078945,29.645517 18.79103,8.0785316 c 0,0 0.73169,2.5359384 3.625092,3.0619724 2.072671,0.376823 4.934694,-1.8870124 6.982054,-1.3907494 2.501395,0.6063164 1.835143,3.1351034 4.132342,3.7618844 2.594873,0.708 6.236059,-0.896931 6.236059,-0.896931 l -3.854044,12.005517 c 0,0 -1.031346,1.118872 -4.346409,0.123726 -2.581479,-0.774931 -2.722306,-3.596237 -4.896474,-4.352942 -2.349598,-0.817762 -4.462375,1.712423 -6.397928,1.230693 -2.52992,-0.629659 -2.913136,-2.019889 -2.913136,-2.019889 l -3.960362,10.970058 z"
         id="path3"
         sodipodi:nodetypes="ccsssccsssccc" />
    </clipPath>
  </defs>
  <g
     inkscape:label="Ebene 1"
     inkscape:groupmode="layer"
     id="layer1"
     style="display:inline">
    <ellipse
       style="font-variation-settings:'wght' 462;opacity:0.993658;fill:#e81500;fill-opacity:1;stroke-width:2.23381;stroke-linecap:round;stroke-linejoin:round;paint-order:stroke fill markers"
       id="path1"
       cx="24.020567"
       cy="24"
       rx="23.938305"
       ry="23.917738" />
    <path
       style="font-variation-settings:'wght' 462;opacity:0.993658;fill:#ffffff;fill-opacity:1;stroke:#000000;stroke-width:4.158;stroke-linecap:round;stroke-linejoin:round;stroke-dasharray:none;stroke-opacity:1;paint-order:stroke markers fill"
       d="M 9.8637639,33.051445 17.575849,11.48446 c 0,0 0.73169,2.535938 3.625092,3.061972 2.072671,0.376823 4.934694,-1.887012 6.982054,-1.390749 2.501395,0.606316 1.835143,3.135103 4.132342,3.761884 2.594873,0.708 6.236059,-0.896931 6.236059,-0.896931 l -3.854044,12.005517 c 0,0 -1.031346,1.118872 -4.346409,0.123726 -2.581479,-0.774931 -2.722306,-3.596237 -4.896474,-4.352942 -2.349598,-0.817762 -4.462375,1.712423 -6.397928,1.230693 -2.52992,-0.629659 -2.913136,-2.019889 -2.913136,-2.019889 l -3.960362,10.970058 z"
       id="path2"
       sodipodi:nodetypes="ccsssccsssccc" />
  </g>
  <g
     inkscape:groupmode="layer"
     id="layer2"
     inkscape:label="chequer"
     style="display:inline">
    <g
       inkscape:groupmode="layer"
       id="layer5"
       inkscape:label="chequer 2"
       transform="matrix(1.0168163,0,0,1.0168163,-1.4812264,3.176649)">
      <g
         inkscape:groupmode="layer"
         id="layer4"
         inkscape:label="chequer 1"
         clip-path="url(#clipPath3)"
         style="display:inline">
        <path
           style="font-variation-settings:'wght' 462;display:inline;opacity:0.993658;fill:#000000;fill-opacity:1;stroke:none;stroke-width:4.158;stroke-linecap:round;stroke-linejoin:round;paint-order:markers stroke fill"
           id="rect1"
           width="22.892582"
           height="10.16466"
           x="6.805903"
           y="5.3916893"
           sodipodi:type="rect"
           transform="matrix(0.18194349,0.06703026,-0.114889,0.31184877,23.512442,-1.0186187)"
           d="M 6.805903,5.3916893 H 29.698485 V 15.55635 H 6.805903 Z m 46.888401,0 H 76.586886 V 15.55635 H 53.694304 Z m 46.888396,0 h 22.89259 V 15.55635 H 100.5827 Z m 46.8884,0 h 22.89259 V 15.55635 H 147.4711 Z M 30.250103,18.55635 H 53.142685 V 28.72101 H 30.250103 Z m 46.888401,0 H 100.03109 V 28.72101 H 77.138504 Z m 46.888396,0 h 22.89259 V 28.72101 H 124.0269 Z m 46.88841,0 h 22.89258 V 28.72101 H 170.91531 Z M 6.805903,31.72101 H 29.698485 V 41.885671 H 6.805903 Z m 46.888401,0 H 76.586886 V 41.885671 H 53.694304 Z m 46.888396,0 h 22.89259 V 41.885671 H 100.5827 Z m 46.8884,0 h 22.89259 V 41.885671 H 147.4711 Z M 30.250103,44.885671 h 22.892582 v 10.16466 H 30.250103 Z m 46.888401,0 h 22.892586 v 10.16466 H 77.138504 Z m 46.888396,0 h 22.89259 v 10.16466 H 124.0269 Z m 46.88841,0 h 22.89258 v 10.16466 H 170.91531 Z M 6.805903,58.050331 H 29.698485 V 68.214992 H 6.805903 Z m 46.888401,0 H 76.586886 V 68.214992 H 53.694304 Z m 46.888396,0 h 22.89259 V 68.214992 H 100.5827 Z m 46.8884,0 h 22.89259 V 68.214992 H 147.4711 Z M 30.250103,71.214992 h 22.892582 v 10.16466 H 30.250103 Z m 46.888401,0 h 22.892586 v 10.16466 H 77.138504 Z m 46.888396,0 h 22.89259 v 10.16466 H 124.0269 Z m 46.88841,0 h 22.89258 v 10.16466 h -22.89258 z"
           inkscape:path-effect="#path-effect2" />
      </g>
    </g>
  </g>
</svg>
